<?xml version="1.0" encoding="utf-8" ?>
<svg baseProfile="full" height="500px" version="1.1" width="500px" xmlns="http://www.w3.org/2000/svg" xmlns:ev="http://www.w3.org/2001/xml-events" xmlns:xlink="http://www.w3.org/1999/xlink"><defs /><polygon fill="gold" points="220,400 280,400 270,450 230,450" stroke="black" stroke-width="2" /><polygon fill="gold" points="180,400 320,400 300,230 200,230" stroke="black" stroke-width="2" /><circle cx="220" cy="270" fill="red" r="30" stroke="black" stroke-width="2" /><circle cx="215" cy="275" fill="black" opacity="0.3" r="30" /><circle cx="270" cy="260" fill="green" r="30" stroke="black" stroke-width="2" /><circle cx="265" cy="265" fill="black" opacity="0.3" r="30" /><circle cx="245" cy="300" fill="pink" r="30" stroke="black" stroke-width="2" /><circle cx="240" cy="305" fill="black" opacity="0.3" r="30" /><polygon fill="green" points="205,240 215,220 235,240" stroke="black" stroke-width="2" /><polygon fill="green" points="290,240 300,220 320,240" stroke="black" stroke-width="2" /><polygon fill="green" points="245,280 255,260 275,280" stroke="black" stroke-width="2" /><polygon fill="black" opacity="0.2" points="220,400 280,400 270,450 230,450" transform="translate(5,5)" /><text fill="black" font-family="Arial" font-size="30px" x="150" y="490">Tournament Logo</text></svg>